Coordinates
version=1
nRows=9
nColumns=42
inDegrees=yes

Units are S.I. units (second, meters, Newtons, ...)
If the header above contains a line with 'inDegrees', this indicates whether rotational values are in degrees (yes) or radians (no).

endheader
time	pelvis_tilt	pelvis_list	pelvis_rotation	pelvis_tx	pelvis_ty	pelvis_tz	hip_flexion_r	hip_adduction_r	hip_rotation_r	knee_angle_r	knee_adduction_r	knee_angle_r_beta	ankle_angle_r	subtalar_angle_r	mtp_angle_r	hip_flexion_l	hip_adduction_l	hip_rotation_l	knee_angle_l	knee_adduction_l	knee_angle_l_beta	ankle_angle_l	subtalar_angle_l	mtp_angle_l	lumbar_extension	lumbar_bending	lumbar_rotation	arm_flex_r	arm_add_r	arm_rot_r	elbow_flex_r	pro_sup_r	wrist_flex_r	wrist_dev_r	arm_flex_l	arm_add_l	arm_rot_l	elbow_flex_l	pro_sup_l	wrist_flex_l	wrist_dev_l
      0.00000000	     13.00405082	     -1.15539367	      6.53869609	     -2.59624277	      0.87883713	      0.17305344	    -27.47717950	      6.03624803	    -20.39883375	      1.49660785	      5.98145427	      0.02612073	     20.27330571	     36.19743158	     -9.50973313	     12.76644943	     -0.79227505	    -13.44871002	     26.64701595	     -7.65941192	      0.46507816	     19.55996671	     18.81303347	     -9.50973313	    -37.12863826	      4.74090359	      5.91489721	      7.07600495	    -19.94809231	      5.72038176	     47.83515961	     90.00000001	      0.00000000	      0.00000000	      5.37134528	    -13.88353028	      6.76519914	     43.70308182	     90.00000001	      0.00000000	      0.00000000
      0.01000000	     12.78139835	     -1.51815377	      6.70725961	     -2.58490201	      0.87633283	      0.17223315	    -28.14901979	      6.54116924	    -21.05788337	      1.37931586	      6.07884544	      0.02407360	     20.42368949	     36.41766936	     -9.45424035	     13.77605886	     -0.86343147	    -12.65930008	     24.30476541	     -6.78723758	      0.42419818	     18.44153753	     19.76402588	     -9.45424035	    -36.80268765	      5.12481632	      6.05817528	      7.52881282	    -20.19618031	      5.17790653	     48.09648331	     90.00000001	      0.00000000	      0.00000000	      4.63001508	    -13.70469134	      6.35812247	     43.27640347	     90.00000001	      0.00000000	      0.00000000
      0.02000000	     12.51814839	     -1.83466997	      6.89561722	     -2.57349718	      0.87378526	      0.17125997	    -28.70870439	      6.97904323	    -21.83669581	      1.42170248	      6.14027067	      0.02481339	     20.61787847	     36.82648011	     -9.39468456	     14.71813607	     -0.83322933	    -11.84786376	     21.95067326	     -5.99395633	      0.38311152	     17.37680896	     20.71500461	     -9.39468456	    -36.44751437	      5.47859587	      6.14499798	      7.92422963	    -20.33235185	      4.32675795	     48.40508711	     90.00000001	      0.00000000	      0.00000000	      3.93286870	    -13.43908153	      5.69686943	     42.78703982	     90.00000001	      0.00000000	      0.00000000
      0.03000000	     12.17809947	     -2.40074690	      7.07613435	     -2.56222615	      0.87110689	      0.17054853	    -29.03727975	      7.75972723	    -22.17031265	      1.54074848	      5.91585071	      0.02689113	     20.80664611	     36.98526711	     -9.37007306	     15.83543257	     -1.16526064	    -11.06994408	     19.97844332	     -5.13627008	      0.34868962	     16.62926741	     21.69103292	     -9.37007306	    -36.00243575	      6.04080047	      6.35752583	      8.29153909	    -20.57093498	      3.79548623	     48.71070929	     90.00000001	      0.00000000	      0.00000000	      3.26753954	    -13.22738729	      5.37562868	     42.33111774	     90.00000001	      0.00000000	      0.00000000
      0.04000000	     11.81718093	     -2.88771027	      7.17574947	     -2.55078815	      0.86852285	      0.16978513	    -29.30130663	      8.35408602	    -22.43304125	      1.80029571	      5.72644128	      0.03142109	     20.96171112	     37.11222047	     -9.34437276	     16.81475387	     -1.37261319	    -10.35896125	     18.02218876	     -4.43172088	      0.31454653	     15.96807537	     22.69627111	     -9.34437276	    -35.54384948	      6.48722595	      6.53822813	      8.59703648	    -20.72070174	      3.09447942	     49.00084995	     90.00000001	      0.00000000	      0.00000000	      2.63949035	    -12.98027411	      4.91879926	     41.73433180	     90.00000001	      0.00000000	      0.00000000
      0.05000000	     11.44248861	     -3.20342777	      7.18603161	     -2.53913185	      0.86607773	      0.16894043	    -29.47167210	      8.64016592	    -22.86924991	      2.35649990	      5.59221044	      0.04112868	     21.20722225	     37.41841456	     -9.27103309	     17.65463573	     -1.36288750	     -9.85736810	     16.19446088	     -3.93655458	      0.28264666	     15.33095429	     23.52027821	     -9.27103309	    -35.07131284	      6.72834618	      6.67030870	      8.80466351	    -20.63694439	      1.85488617	     49.24731581	     90.00000001	      0.00000000	      0.00000000	      2.09082026	    -12.54706371	      3.84500058	     40.93604515	     90.00000001	      0.00000000	      0.00000000
      0.06000000	     11.09431474	     -3.74410559	      7.13890271	     -2.52755913	      0.86375625	      0.16849357	    -29.55559637	      9.23596891	    -22.72491886	      2.93124035	      5.15221556	      0.05115980	     21.37167292	     37.42885786	     -9.23150259	     18.52578640	     -1.70491367	     -9.30334291	     14.85506746	     -3.42427399	      0.25926984	     15.11293611	     24.23741946	     -9.23150259	    -34.63502566	      7.13365664	      6.93859146	      9.00825270	    -20.76850749	      1.39947757	     49.46660690	     90.00000001	      0.00000000	      0.00000000	      1.53691820	    -12.32608792	      3.54018938	     40.32636868	     90.00000001	      0.00000000	      0.00000000
      0.07000000	     10.79379228	     -4.08766508	      6.96411518	     -2.51566982	      0.86172559	      0.16793483	    -29.61576374	      9.42928742	    -22.83103275	      3.86794932	      4.85350771	      0.06750845	     21.56929388	     37.57963029	     -9.16364090	     19.19850907	     -1.82506314	     -9.13128280	     13.76233830	     -3.17788491	      0.24019812	     14.84295192	     25.10453813	     -9.16364090	    -34.25451066	      7.30688004	      7.19940007	      9.08523371	    -20.74535407	      0.52892874	     49.73965258	     90.00000001	      0.00000000	      0.00000000	      1.07445616	    -11.97217474	      2.75669822	     39.52825247	     90.00000001	      0.00000000	      0.00000000
      0.08000000	     10.53883648	     -4.48479302	      6.74029974	     -2.50358529	      0.85990187	      0.16768790	    -29.65631552	      9.72827486	    -22.59484642	      4.86125808	      4.32871419	      0.08484496	     21.72072796	     37.66957417	     -9.12520963	     19.77237734	     -2.09442133	     -8.81006076	     13.09543223	     -2.91639943	      0.22855841	     14.90793768	     25.69476463	     -9.12520963	    -33.90054047	      7.47341073	      7.53156429	      9.08677116	    -20.81288910	      0.12203649	     49.87281505	     90.00000001	      0.00000000	      0.00000000	      0.63010324	    -11.77933731	      2.40163702	     38.86261122	     90.00000001	      0.00000000	      0.00000000
